<svg xmlns="http://www.w3.org/2000/svg" width="256" height="256" viewBox="0 0 256 256" fill="none">
  <title>Contexto Multilang icon</title>
  <defs>
    <linearGradient id="bg" x1="36" y1="24" x2="220" y2="232" gradientUnits="userSpaceOnUse">
      <stop stop-color="#1B2230" />
      <stop offset="1" stop-color="#0B0D12" />
    </linearGradient>
    <radialGradient id="glow" cx="0" cy="0" r="1" gradientUnits="userSpaceOnUse" gradientTransform="translate(128 126) rotate(90) scale(98)">
      <stop stop-color="#FFD27A" />
      <stop offset="0.48" stop-color="#FF9A4D" />
      <stop offset="1" stop-color="#FF6B2C" />
    </radialGradient>
    <linearGradient id="tile" x1="74" y1="54" x2="182" y2="198" gradientUnits="userSpaceOnUse">
      <stop stop-color="#F7F0E5" stop-opacity="0.24" />
      <stop offset="1" stop-color="#F7F0E5" stop-opacity="0.08" />
    </linearGradient>
  </defs>
  <rect x="16" y="16" width="224" height="224" rx="52" fill="url(#bg)" />
  <circle cx="128" cy="128" r="78" fill="url(#glow)" fill-opacity="0.16" />
  <circle cx="128" cy="128" r="52" stroke="#FFB160" stroke-width="10" stroke-opacity="0.9" />
  <circle cx="128" cy="128" r="28" fill="url(#glow)" />
  <circle cx="128" cy="128" r="10" fill="#171A22" />
  <path d="M128 128L84 84" stroke="#F7F0E5" stroke-opacity="0.34" stroke-width="8" stroke-linecap="round" />
  <path d="M128 128L176 92" stroke="#F7F0E5" stroke-opacity="0.34" stroke-width="8" stroke-linecap="round" />
  <path d="M128 128L162 176" stroke="#F7F0E5" stroke-opacity="0.34" stroke-width="8" stroke-linecap="round" />
  <rect x="56" y="56" width="52" height="52" rx="16" fill="url(#tile)" stroke="#F7F0E5" stroke-opacity="0.18" />
  <rect x="148" y="64" width="52" height="52" rx="16" fill="url(#tile)" stroke="#F7F0E5" stroke-opacity="0.18" />
  <rect x="136" y="148" width="52" height="52" rx="16" fill="url(#tile)" stroke="#F7F0E5" stroke-opacity="0.18" />
  <text x="82" y="90" fill="#F7F0E5" font-family="Inter, Arial, sans-serif" font-size="24" font-weight="700" text-anchor="middle">A</text>
  <text x="174" y="98" fill="#F7F0E5" font-family="&quot;Noto Sans CJK SC&quot;, &quot;Source Han Sans SC&quot;, sans-serif" font-size="24" font-weight="700" text-anchor="middle">文</text>
  <text x="162" y="182" fill="#F7F0E5" font-family="&quot;Noto Sans KR&quot;, &quot;Source Han Sans K&quot;, sans-serif" font-size="24" font-weight="700" text-anchor="middle">가</text>
  <rect x="16" y="16" width="224" height="224" rx="52" stroke="#F7F0E5" stroke-opacity="0.08" />
</svg>
